<?xml version="1.0" standalone="no"?>
<!DOCTYPE svg PUBLIC "-//W3C//DTD SVG 20010904//EN"
 "http://www.w3.org/TR/2001/REC-SVG-20010904/DTD/svg10.dtd">
<svg version="1.0" xmlns="http://www.w3.org/2000/svg"
 width="1024.000000pt" height="373.000000pt" viewBox="0 0 1024.000000 373.000000"
 preserveAspectRatio="xMidYMid meet">

<g transform="translate(0.000000,373.000000) scale(0.100000,-0.100000)"
fill="#000000" stroke="none">
<path d="M8278 3715 c-151 -21 -253 -44 -380 -86 -253 -82 -429 -189 -603
-363 -202 -203 -318 -422 -375 -712 -35 -173 -37 -448 -4 -556 5 -17 51 -18
790 -18 l784 0 0 875 0 875 -57 -1 c-32 -1 -102 -7 -155 -14z"/>
<path d="M8680 2855 l0 -875 700 0 c385 0 700 4 700 8 0 18 -104 180 -173 272
-40 52 -132 155 -205 228 l-133 132 300 0 c259 0 301 2 301 15 0 47 -105 268
-183 385 -224 336 -540 559 -938 660 -90 23 -263 50 -326 50 l-43 0 0 -875z"/>
<path d="M1661 3629 c-831 -87 -1509 -693 -1641 -1466 -11 -63 -20 -130 -20
-149 l0 -34 890 0 890 0 0 830 c0 784 -1 830 -17 829 -10 -1 -56 -6 -102 -10z"/>
<path d="M1970 2810 l0 -830 310 0 310 0 0 795 0 795 -22 9 c-52 19 -435 60
-570 61 l-28 0 0 -830z"/>
<path d="M3290 3135 l0 -495 470 0 470 0 0 -330 0 -330 355 0 355 0 -2 823 -3
822 -822 3 -823 2 0 -495z"/>
<path d="M5127 3623 c-4 -3 -7 -375 -7 -825 l0 -818 340 0 340 0 0 330 0 330
470 0 470 0 0 495 0 495 -803 0 c-442 0 -807 -3 -810 -7z"/>
<path d="M0 1766 c0 -50 22 -184 46 -281 175 -693 790 -1222 1545 -1330 57 -8
123 -15 147 -15 l42 0 0 825 0 825 -890 0 -890 0 0 -24z"/>
<path d="M1970 965 l0 -825 54 0 c90 0 283 28 414 61 589 146 959 514 1108
1104 31 126 64 351 64 443 l0 42 -820 0 -820 0 0 -825z"/>
<path d="M4230 990 l0 -800 353 2 352 3 3 798 2 797 -355 0 -355 0 0 -800z"/>
<path d="M5122 993 l3 -798 338 -3 337 -2 0 800 0 800 -340 0 -340 0 2 -797z"/>
<path d="M6980 1785 c0 -19 97 -194 145 -260 105 -147 287 -316 441 -409 l59
-36 -347 0 c-192 0 -348 -2 -348 -3 0 -16 45 -127 78 -192 191 -379 623 -691
1134 -820 101 -26 270 -55 321 -55 l27 0 0 890 0 890 -755 0 c-415 0 -755 -2
-755 -5z"/>
<path d="M8680 895 l0 -895 63 6 c184 17 385 77 582 174 480 234 839 660 905
1074 19 113 8 297 -25 420 -14 55 -28 103 -31 108 -3 4 -340 8 -750 8 l-744 0
0 -895z"/>
</g>
</svg>
