<?xml version="1.0" standalone="no"?>
<!DOCTYPE svg PUBLIC "-//W3C//DTD SVG 20010904//EN"
 "http://www.w3.org/TR/2001/REC-SVG-20010904/DTD/svg10.dtd">
<svg version="1.0" xmlns="http://www.w3.org/2000/svg"
 width="496.000000pt" height="512.000000pt" viewBox="0 0 496.000000 512.000000"
 preserveAspectRatio="xMidYMid meet">

<g transform="translate(0.000000,512.000000) scale(0.100000,-0.100000)"
fill="#000000" stroke="none">
<path d="M2260 4975 c-788 -95 -1465 -501 -1884 -1128 -150 -226 -277 -525
-331 -787 -21 -98 -45 -265 -45 -312 l0 -38 1220 0 1220 0 0 1140 0 1140 -37
-1 c-21 -1 -85 -7 -143 -14z"/>
<path d="M2702 3854 l3 -1139 423 -3 422 -2 0 1099 c0 1039 -1 1100 -17 1105
-82 24 -442 63 -676 73 l-157 6 2 -1139z"/>
<path d="M0 2425 c0 -63 30 -251 60 -371 42 -172 92 -310 170 -469 345 -704
1037 -1212 1850 -1359 74 -13 171 -27 215 -31 44 -3 95 -8 113 -11 l32 -5 0
1141 0 1140 -1220 0 -1220 0 0 -35z"/>
<path d="M2700 1319 l0 -1140 88 6 c486 35 867 143 1190 337 510 306 833 821
941 1499 21 130 41 324 41 397 l0 42 -1130 0 -1130 0 0 -1141z"/>
</g>
</svg>
